<svg xmlns="http://www.w3.org/2000/svg" xmlns:xlink="http://www.w3.org/1999/xlink" xmlns:lucid="lucid" width="652" height="1120"><g transform="translate(-128 -140)" lucid:page-tab-id="0_0"><path d="M380 250h160v60H380z" stroke="#000" stroke-width="2" fill="#fff"/><use xlink:href="#a" transform="matrix(1,0,0,1,385,255) translate(33.025 17.525)"/><use xlink:href="#b" transform="matrix(1,0,0,1,385,255) translate(78.025 17.525)"/><use xlink:href="#c" transform="matrix(1,0,0,1,385,255) translate(26 39.125)"/><path d="M460 345l50 50-50 50-50-50z" stroke="#000" stroke-width="2" fill="#fff"/><use xlink:href="#d" transform="matrix(1,0,0,1,415,350) translate(25.73 36.9)"/><use xlink:href="#e" transform="matrix(1,0,0,1,415,350) translate(20.53 58.5)"/><path d="M460 312v13.08" stroke="#000" stroke-width="2" fill="none"/><path d="M461 312.03h-2V311h2z"/><path d="M460 340.35l-4.64-14.27h9.28z" stroke="#000" stroke-width="2"/><path d="M180 595h140v70H180z" stroke="#000" stroke-width="2" fill="#fff"/><use xlink:href="#f" transform="matrix(1,0,0,1,185,600) translate(20.625 33.15)"/><use xlink:href="#g" transform="matrix(1,0,0,1,185,600) translate(71.525 33.15)"/><path d="M251 575.5h-2V426h2zM407.6 396H251v8.4h-2V394h158.6z"/><path d="M408.6 395l1 1h-2.04v-2h2.03zM250 590.76l-4.64-14.26h9.28z"/><path d="M250 594l-6-18.5h12zm-3.26-16.5l3.26 10.03 3.26-10.03z"/><use xlink:href="#h" transform="matrix(1,0,0,1,238.525,404.40710678118654) translate(0 14.4)"/><path d="M380 500h160v60H380z" stroke="#000" stroke-width="2" fill="#fff"/><use xlink:href="#i" transform="matrix(1,0,0,1,385,505) translate(7.074999999999989 30.3375)"/><use xlink:href="#j" transform="matrix(1,0,0,1,385,505) translate(68.02499999999999 30.3375)"/><path d="M461 461.9h-2v-14.5h2z"/><path d="M461 447.44h-2v-2.03l1 1 1-1zM460 495.76l-3.98-12.25h7.96z"/><path d="M460 499l-5.03-15.5h2.1l2.93 9.03 2.93-9.02h2.1z"/><use xlink:href="#k" transform="matrix(1,0,0,1,445.325,461.90710678118654) translate(0 14.4)"/><path d="M274 160c8.84 0 16 8.95 16 20s-7.16 20-16 20h-48c-8.84 0-16-8.95-16-20s7.16-20 16-20z" stroke="#000" stroke-width="2" fill="#fff"/><use xlink:href="#l" transform="matrix(1,0,0,1,215,165) translate(16.025 18.15)"/><path d="M178.67 245H340l-18.67 70H160z" stroke="#000" stroke-width="2" fill="#fff"/><use xlink:href="#m" transform="matrix(1,0,0,1,165,250) translate(20.07999999999999 21.9)"/><use xlink:href="#n" transform="matrix(1,0,0,1,165,250) translate(65.07999999999998 21.9)"/><use xlink:href="#o" transform="matrix(1,0,0,1,165,250) translate(33.555 43.5)"/><use xlink:href="#p" transform="matrix(1,0,0,1,165,250) translate(68.555 43.5)"/><use xlink:href="#q" transform="matrix(1,0,0,1,165,250) translate(96.455 43.5)"/><path d="M250 202v23.5" stroke="#000" stroke-width="2" fill="none"/><path d="M251 202.03h-2V201h2z"/><path d="M250 240.76l-4.64-14.26h9.28z" stroke="#000" stroke-width="2"/><path d="M332.7 280h27.8" stroke="#000" stroke-width="2" fill="none"/><path d="M332.73 281h-1.3l.54-2h.76z"/><path d="M375.76 280l-14.26 4.64v-9.28z" stroke="#000" stroke-width="2"/><path d="M380 595h160v60H380z" stroke="#000" stroke-width="2" fill="#fff"/><use xlink:href="#r" transform="matrix(1,0,0,1,385,600) translate(2.0999999999999943 30.3375)"/><use xlink:href="#s" transform="matrix(1,0,0,1,385,600) translate(72.05 30.3375)"/><use xlink:href="#t" transform="matrix(1,0,0,1,385,600) translate(118 30.3375)"/><path d="M460 562v13.5" stroke="#000" stroke-width="2" fill="none"/><path d="M461 562.03h-2V561h2z"/><path d="M460 590.76l-4.64-14.26h9.28z" stroke="#000" stroke-width="2"/><path d="M460 690l65 60-65 60-65-60z" stroke="#000" stroke-width="2" fill="#fff"/><use xlink:href="#u" transform="matrix(1,0,0,1,400,695) translate(44.029999999999994 24.41)"/><use xlink:href="#v" transform="matrix(1,0,0,1,400,695) translate(32.605000000000004 46.01)"/><use xlink:href="#w" transform="matrix(1,0,0,1,400,695) translate(17.554999999999996 67.61)"/><path d="M460 657v13.14" stroke="#000" stroke-width="2" fill="none"/><path d="M461 657.03h-2V656h2z"/><path d="M460 685.4l-4.64-14.26h9.28z" stroke="#000" stroke-width="2"/><path d="M600 720h160v60H600z" stroke="#000" stroke-width="2" fill="#fff"/><use xlink:href="#r" transform="matrix(1,0,0,1,605,725) translate(12.625 17.5875)"/><use xlink:href="#v" transform="matrix(1,0,0,1,605,725) translate(82.575 17.5875)"/><use xlink:href="#x" transform="matrix(1,0,0,1,605,725) translate(55.55 39.1875)"/><path d="M380 860h160v60H380z" stroke="#000" stroke-width="2" fill="#fff"/><use xlink:href="#y" transform="matrix(1,0,0,1,385,865) translate(20.549999999999997 17.5875)"/><use xlink:href="#z" transform="matrix(1,0,0,1,385,865) translate(79.45 17.5875)"/><use xlink:href="#j" transform="matrix(1,0,0,1,385,865) translate(37.55 39.1875)"/><path d="M548.06 751h-20.6v-2h20.6zm32.44 0h-3.1v-2h3.1z"/><path d="M527.5 751h-2.1l1.07-1-1.08-1h2.1zM595.76 750l-14.26 4.64v-9.28z"/><path d="M599 750l-18.5 6v-12zm-16.5 3.26l10.03-3.26-10.03-3.26z"/><use xlink:href="#k" transform="matrix(1,0,0,1,548.0621585838732,739.2) translate(0 14.4)"/><path d="M461 824.38h-2v-12.02h2z"/><path d="M461 812.4h-2v-1.96l1 .92 1-.92zM460 855.76l-3.18-9.78h6.36z"/><path d="M460 859l-4.23-13.02h2.1l2.13 6.55 2.13-6.55h2.1z"/><use xlink:href="#h" transform="matrix(1,0,0,1,448.525,824.3804540774213) translate(0 14.4)"/><path d="M680 782v108H559.5" stroke="#000" stroke-width="2" fill="none"/><path d="M681 782.03h-2V781h2z"/><path d="M544.24 890l14.26-4.64v9.28z" stroke="#000" stroke-width="2"/><path d="M460 960l55 50-55 50-55-50z" stroke="#000" stroke-width="2" fill="#fff"/><use xlink:href="#d" transform="matrix(1,0,0,1,410,965) translate(30.73 36.9)"/><use xlink:href="#A" transform="matrix(1,0,0,1,410,965) translate(20.005 58.5)"/><path d="M460 922v18.15" stroke="#000" stroke-width="2" fill="none"/><path d="M461 922.03h-2V921h2z"/><path d="M460 955.4l-4.64-14.25h9.28z" stroke="#000" stroke-width="2"/><path d="M380 1110h160v60H380z" stroke="#000" stroke-width="2" fill="#fff"/><use xlink:href="#B" transform="matrix(1,0,0,1,385,1115) translate(12.799999999999997 30.3375)"/><use xlink:href="#C" transform="matrix(1,0,0,1,385,1115) translate(59.3 30.3375)"/><use xlink:href="#D" transform="matrix(1,0,0,1,385,1115) translate(114.3 30.3375)"/><path d="M461 1074.38h-2v-12.03h2z"/><path d="M461 1062.38h-2v-1.94l1 .9 1-.9zM460 1105.76l-3.18-9.78h6.36z"/><path d="M460 1109l-4.23-13.02h2.1l2.13 6.55 2.13-6.55h2.1z"/><g><use xlink:href="#k" transform="matrix(1,0,0,1,445.325,1074.3757303976056) translate(0 14.4)"/></g><path d="M251 1009h151.5v2H249v-85.44h2zm0-105.04h-2V684.5h2zM403.5 1010l1.1 1h-2.1v-2h2.1zM254.64 683.5h-9.28l4.64-14.26z"/><path d="M256 684.5h-12l6-18.5zm-9.26-2h6.52L250 672.47z"/><g><use xlink:href="#h" transform="matrix(1,0,0,1,238.525,903.9566965626341) translate(0 14.4)"/></g><path d="M484 1200c8.84 0 16 8.95 16 20s-7.16 20-16 20h-48c-8.84 0-16-8.95-16-20s7.16-20 16-20z" stroke="#000" stroke-width="2" fill="#fff"/><g><use xlink:href="#E" transform="matrix(1,0,0,1,425,1205) translate(19 18.15)"/></g><path d="M460 1172v8.5" stroke="#000" stroke-width="2" fill="none"/><path d="M461 1172.03h-2V1171h2z"/><path d="M460 1195.76l-4.64-14.26h9.28z" stroke="#000" stroke-width="2"/><path d="M178 631h-38v588h260.5v2H138V629h40z"/><path d="M179 631h-1.03v-2H179zM415.76 1220l-14.26 4.64v-9.28z"/><path d="M419 1220l-18.5 6v-12zm-16.5 3.26l10.03-3.26-10.03-3.26z"/><defs><path d="M30 0v-248h33v221h125V0H30" id="F"/><path d="M100-194c62-1 85 37 85 99 1 63-27 99-86 99S16-35 15-95c0-66 28-99 85-99zM99-20c44 1 53-31 53-75 0-43-8-75-51-75s-53 32-53 75 10 74 51 75" id="G"/><path d="M141-36C126-15 110 5 73 4 37 3 15-17 15-53c-1-64 63-63 125-63 3-35-9-54-41-54-24 1-41 7-42 31l-33-3c5-37 33-52 76-52 45 0 72 20 72 64v82c-1 20 7 32 28 27v20c-31 9-61-2-59-35zM48-53c0 20 12 33 32 33 41-3 63-29 60-74-43 2-92-5-92 41" id="H"/><path d="M85-194c31 0 48 13 60 33l-1-100h32l1 261h-30c-2-10 0-23-3-31C134-8 116 4 85 4 32 4 16-35 15-94c0-66 23-100 70-100zm9 24c-40 0-46 34-46 75 0 40 6 74 45 74 42 0 51-32 51-76 0-42-9-74-50-73" id="I"/><g id="a"><use transform="matrix(0.05,0,0,0.05,0,0)" xlink:href="#F"/><use transform="matrix(0.05,0,0,0.05,10,0)" xlink:href="#G"/><use transform="matrix(0.05,0,0,0.05,20,0)" xlink:href="#H"/><use transform="matrix(0.05,0,0,0.05,30,0)" xlink:href="#I"/></g><path d="M24-231v-30h32v30H24zM24 0v-190h32V0H24" id="J"/><path d="M117-194c89-4 53 116 60 194h-32v-121c0-31-8-49-39-48C34-167 62-67 57 0H25l-1-190h30c1 10-1 24 2 32 11-22 29-35 61-36" id="K"/><path d="M115-194c55 1 70 41 70 98S169 2 115 4C84 4 66-9 55-30l1 105H24l-1-265h31l2 30c10-21 28-34 59-34zm-8 174c40 0 45-34 45-75s-6-73-45-74c-42 0-51 32-51 76 0 43 10 73 51 73" id="L"/><path d="M84 4C-5 8 30-112 23-190h32v120c0 31 7 50 39 49 72-2 45-101 50-169h31l1 190h-30c-1-10 1-25-2-33-11 22-28 36-60 37" id="M"/><path d="M59-47c-2 24 18 29 38 22v24C64 9 27 4 27-40v-127H5v-23h24l9-43h21v43h35v23H59v120" id="N"/><g id="b"><use transform="matrix(0.05,0,0,0.05,0,0)" xlink:href="#J"/><use transform="matrix(0.05,0,0,0.05,3.95,0)" xlink:href="#K"/><use transform="matrix(0.05,0,0,0.05,13.949999999999998,0)" xlink:href="#L"/><use transform="matrix(0.05,0,0,0.05,23.95,0)" xlink:href="#M"/><use transform="matrix(0.05,0,0,0.05,33.95,0)" xlink:href="#N"/></g><path d="M177-190C167-65 218 103 67 71c-23-6-38-20-44-43l32-5c15 47 100 32 89-28v-30C133-14 115 1 83 1 29 1 15-40 15-95c0-56 16-97 71-98 29-1 48 16 59 35 1-10 0-23 2-32h30zM94-22c36 0 50-32 50-73 0-42-14-75-50-75-39 0-46 34-46 75s6 73 46 73" id="O"/><path d="M100-194c63 0 86 42 84 106H49c0 40 14 67 53 68 26 1 43-12 49-29l28 8c-11 28-37 45-77 45C44 4 14-33 15-96c1-61 26-98 85-98zm52 81c6-60-76-77-97-28-3 7-6 17-6 28h103" id="P"/><path d="M96-169c-40 0-48 33-48 73s9 75 48 75c24 0 41-14 43-38l32 2c-6 37-31 61-74 61-59 0-76-41-82-99-10-93 101-131 147-64 4 7 5 14 7 22l-32 3c-4-21-16-35-41-35" id="Q"/><path d="M143 0L79-87 56-68V0H24v-261h32v163l83-92h37l-77 82L181 0h-38" id="R"/><g id="c"><use transform="matrix(0.05,0,0,0.05,0,0)" xlink:href="#O"/><use transform="matrix(0.05,0,0,0.05,10,0)" xlink:href="#P"/><use transform="matrix(0.05,0,0,0.05,20,0)" xlink:href="#G"/><use transform="matrix(0.05,0,0,0.05,30,0)" xlink:href="#L"/><use transform="matrix(0.05,0,0,0.05,40,0)" xlink:href="#H"/><use transform="matrix(0.05,0,0,0.05,50,0)" xlink:href="#Q"/><use transform="matrix(0.05,0,0,0.05,59,0)" xlink:href="#R"/><use transform="matrix(0.05,0,0,0.05,68,0)" xlink:href="#H"/><use transform="matrix(0.05,0,0,0.05,78,0)" xlink:href="#O"/><use transform="matrix(0.05,0,0,0.05,88,0)" xlink:href="#P"/></g><path d="M137 0h-34L2-248h35l83 218 83-218h36" id="S"/><path d="M24 0v-261h32V0H24" id="T"/><g id="d"><use transform="matrix(0.05,0,0,0.05,0,0)" xlink:href="#S"/><use transform="matrix(0.05,0,0,0.05,10.65,0)" xlink:href="#H"/><use transform="matrix(0.05,0,0,0.05,20.65,0)" xlink:href="#T"/><use transform="matrix(0.05,0,0,0.05,24.599999999999998,0)" xlink:href="#J"/><use transform="matrix(0.05,0,0,0.05,28.549999999999997,0)" xlink:href="#I"/></g><path d="M103-251c84 0 111 97 45 133-19 10-37 24-39 52H78c0-63 77-55 77-114 0-30-21-42-52-43-32 0-53 17-56 46l-32-2c7-45 34-72 88-72zM77 0v-35h34V0H77" id="U"/><g id="e"><use transform="matrix(0.05,0,0,0.05,0,0)" xlink:href="#J"/><use transform="matrix(0.05,0,0,0.05,3.95,0)" xlink:href="#K"/><use transform="matrix(0.05,0,0,0.05,13.949999999999998,0)" xlink:href="#L"/><use transform="matrix(0.05,0,0,0.05,23.95,0)" xlink:href="#M"/><use transform="matrix(0.05,0,0,0.05,33.95,0)" xlink:href="#N"/><use transform="matrix(0.05,0,0,0.05,38.95,0)" xlink:href="#U"/></g><path d="M233-177c-1 41-23 64-60 70L243 0h-38l-65-103H63V0H30v-248c88 3 205-21 203 71zM63-129c60-2 137 13 137-47 0-61-80-42-137-45v92" id="V"/><path d="M135-143c-3-34-86-38-87 0 15 53 115 12 119 90S17 21 10-45l28-5c4 36 97 45 98 0-10-56-113-15-118-90-4-57 82-63 122-42 12 7 21 19 24 35" id="W"/><g id="f"><use transform="matrix(0.05,0,0,0.05,0,0)" xlink:href="#V"/><use transform="matrix(0.05,0,0,0.05,12.950000000000001,0)" xlink:href="#H"/><use transform="matrix(0.05,0,0,0.05,22.950000000000003,0)" xlink:href="#J"/><use transform="matrix(0.05,0,0,0.05,26.900000000000002,0)" xlink:href="#W"/><use transform="matrix(0.05,0,0,0.05,35.900000000000006,0)" xlink:href="#P"/></g><path d="M114-163C36-179 61-72 57 0H25l-1-190h30c1 12-1 29 2 39 6-27 23-49 58-41v29" id="X"/><g id="g"><use transform="matrix(0.05,0,0,0.05,0,0)" xlink:href="#P"/><use transform="matrix(0.05,0,0,0.05,10,0)" xlink:href="#X"/><use transform="matrix(0.05,0,0,0.05,15.949999999999998,0)" xlink:href="#X"/><use transform="matrix(0.05,0,0,0.05,21.9,0)" xlink:href="#G"/><use transform="matrix(0.05,0,0,0.05,31.899999999999995,0)" xlink:href="#X"/></g><path d="M190 0L58-211 59 0H30v-248h39L202-35l-2-213h31V0h-41" id="Y"/><g id="h"><use transform="matrix(0.05,0,0,0.05,0,0)" xlink:href="#Y"/><use transform="matrix(0.05,0,0,0.05,12.950000000000001,0)" xlink:href="#G"/></g><path d="M30 0v-248h187v28H63v79h144v27H63v87h162V0H30" id="Z"/><path d="M141 0L90-78 38 0H4l68-98-65-92h35l48 74 47-74h35l-64 92 68 98h-35" id="aa"/><g id="i"><use transform="matrix(0.05,0,0,0.05,0,0)" xlink:href="#Z"/><use transform="matrix(0.05,0,0,0.05,12,0)" xlink:href="#aa"/><use transform="matrix(0.05,0,0,0.05,21,0)" xlink:href="#N"/><use transform="matrix(0.05,0,0,0.05,26,0)" xlink:href="#X"/><use transform="matrix(0.05,0,0,0.05,31.950000000000003,0)" xlink:href="#H"/><use transform="matrix(0.05,0,0,0.05,41.95,0)" xlink:href="#Q"/><use transform="matrix(0.05,0,0,0.05,50.95,0)" xlink:href="#N"/></g><path d="M210-169c-67 3-38 105-44 169h-31v-121c0-29-5-50-35-48C34-165 62-65 56 0H25l-1-190h30c1 10-1 24 2 32 10-44 99-50 107 0 11-21 27-35 58-36 85-2 47 119 55 194h-31v-121c0-29-5-49-35-48" id="ab"/><path d="M179-190L93 31C79 59 56 82 12 73V49c39 6 53-20 64-50L1-190h34L92-34l54-156h33" id="ac"/><g id="j"><use transform="matrix(0.05,0,0,0.05,0,0)" xlink:href="#O"/><use transform="matrix(0.05,0,0,0.05,10,0)" xlink:href="#P"/><use transform="matrix(0.05,0,0,0.05,20,0)" xlink:href="#G"/><use transform="matrix(0.05,0,0,0.05,30,0)" xlink:href="#ab"/><use transform="matrix(0.05,0,0,0.05,44.95,0)" xlink:href="#P"/><use transform="matrix(0.05,0,0,0.05,54.95,0)" xlink:href="#N"/><use transform="matrix(0.05,0,0,0.05,59.95,0)" xlink:href="#X"/><use transform="matrix(0.05,0,0,0.05,65.9,0)" xlink:href="#ac"/></g><path d="M137-103V0h-34v-103L8-248h37l75 118 75-118h37" id="ad"/><g id="k"><use transform="matrix(0.05,0,0,0.05,0,0)" xlink:href="#ad"/><use transform="matrix(0.05,0,0,0.05,10.35,0)" xlink:href="#P"/><use transform="matrix(0.05,0,0,0.05,20.35,0)" xlink:href="#W"/></g><path d="M185-189c-5-48-123-54-124 2 14 75 158 14 163 119 3 78-121 87-175 55-17-10-28-26-33-46l33-7c5 56 141 63 141-1 0-78-155-14-162-118-5-82 145-84 179-34 5 7 8 16 11 25" id="ae"/><g id="l"><use transform="matrix(0.05,0,0,0.05,0,0)" xlink:href="#ae"/><use transform="matrix(0.05,0,0,0.05,12,0)" xlink:href="#N"/><use transform="matrix(0.05,0,0,0.05,17,0)" xlink:href="#H"/><use transform="matrix(0.05,0,0,0.05,27,0)" xlink:href="#X"/><use transform="matrix(0.05,0,0,0.05,32.95,0)" xlink:href="#N"/></g><path d="M33 0v-248h34V0H33" id="af"/><g id="m"><use transform="matrix(0.05,0,0,0.05,0,0)" xlink:href="#af"/><use transform="matrix(0.05,0,0,0.05,5,0)" xlink:href="#K"/><use transform="matrix(0.05,0,0,0.05,15,0)" xlink:href="#L"/><use transform="matrix(0.05,0,0,0.05,25,0)" xlink:href="#M"/><use transform="matrix(0.05,0,0,0.05,35,0)" xlink:href="#N"/></g><g id="n"><use transform="matrix(0.05,0,0,0.05,0,0)" xlink:href="#L"/><use transform="matrix(0.05,0,0,0.05,10,0)" xlink:href="#H"/><use transform="matrix(0.05,0,0,0.05,20,0)" xlink:href="#X"/><use transform="matrix(0.05,0,0,0.05,25.950000000000003,0)" xlink:href="#H"/><use transform="matrix(0.05,0,0,0.05,35.95,0)" xlink:href="#ab"/><use transform="matrix(0.05,0,0,0.05,50.900000000000006,0)" xlink:href="#P"/><use transform="matrix(0.05,0,0,0.05,60.900000000000006,0)" xlink:href="#N"/><use transform="matrix(0.05,0,0,0.05,65.9,0)" xlink:href="#P"/><use transform="matrix(0.05,0,0,0.05,75.9,0)" xlink:href="#X"/><use transform="matrix(0.05,0,0,0.05,81.85000000000001,0)" xlink:href="#W"/></g><g id="o"><use transform="matrix(0.05,0,0,0.05,0,0)" xlink:href="#H"/><use transform="matrix(0.05,0,0,0.05,10,0)" xlink:href="#K"/><use transform="matrix(0.05,0,0,0.05,20,0)" xlink:href="#I"/></g><path d="M101-234c-31-9-42 10-38 44h38v23H63V0H32v-167H5v-23h27c-7-52 17-82 69-68v24" id="ag"/><g id="p"><use transform="matrix(0.05,0,0,0.05,0,0)" xlink:href="#ag"/><use transform="matrix(0.05,0,0,0.05,5,0)" xlink:href="#J"/><use transform="matrix(0.05,0,0,0.05,8.95,0)" xlink:href="#T"/><use transform="matrix(0.05,0,0,0.05,12.899999999999999,0)" xlink:href="#P"/></g><path d="M106-169C34-169 62-67 57 0H25v-261h32l-1 103c12-21 28-36 61-36 89 0 53 116 60 194h-32v-121c2-32-8-49-39-48" id="ah"/><g id="q"><use transform="matrix(0.05,0,0,0.05,0,0)" xlink:href="#L"/><use transform="matrix(0.05,0,0,0.05,10,0)" xlink:href="#H"/><use transform="matrix(0.05,0,0,0.05,20,0)" xlink:href="#N"/><use transform="matrix(0.05,0,0,0.05,25,0)" xlink:href="#ah"/></g><path d="M30-248c87 1 191-15 191 75 0 78-77 80-158 76V0H30v-248zm33 125c57 0 124 11 124-50 0-59-68-47-124-48v98" id="ai"/><g id="r"><use transform="matrix(0.05,0,0,0.05,0,0)" xlink:href="#ai"/><use transform="matrix(0.05,0,0,0.05,12,0)" xlink:href="#X"/><use transform="matrix(0.05,0,0,0.05,17.95,0)" xlink:href="#G"/><use transform="matrix(0.05,0,0,0.05,27.950000000000003,0)" xlink:href="#Q"/><use transform="matrix(0.05,0,0,0.05,36.95,0)" xlink:href="#P"/><use transform="matrix(0.05,0,0,0.05,46.95,0)" xlink:href="#W"/><use transform="matrix(0.05,0,0,0.05,55.95,0)" xlink:href="#W"/></g><g id="s"><use transform="matrix(0.05,0,0,0.05,0,0)" xlink:href="#G"/><use transform="matrix(0.05,0,0,0.05,10,0)" xlink:href="#M"/><use transform="matrix(0.05,0,0,0.05,20,0)" xlink:href="#N"/><use transform="matrix(0.05,0,0,0.05,25,0)" xlink:href="#P"/><use transform="matrix(0.05,0,0,0.05,35,0)" xlink:href="#X"/></g><g id="t"><use transform="matrix(0.05,0,0,0.05,0,0)" xlink:href="#X"/><use transform="matrix(0.05,0,0,0.05,5.95,0)" xlink:href="#J"/><use transform="matrix(0.05,0,0,0.05,9.9,0)" xlink:href="#K"/><use transform="matrix(0.05,0,0,0.05,19.9,0)" xlink:href="#O"/></g><path d="M197 0v-115H63V0H30v-248h33v105h134v-105h34V0h-34" id="aj"/><g id="u"><use transform="matrix(0.05,0,0,0.05,0,0)" xlink:href="#aj"/><use transform="matrix(0.05,0,0,0.05,12.950000000000001,0)" xlink:href="#H"/><use transform="matrix(0.05,0,0,0.05,22.950000000000003,0)" xlink:href="#W"/></g><g id="v"><use transform="matrix(0.05,0,0,0.05,0,0)" xlink:href="#J"/><use transform="matrix(0.05,0,0,0.05,3.95,0)" xlink:href="#K"/><use transform="matrix(0.05,0,0,0.05,13.949999999999998,0)" xlink:href="#N"/><use transform="matrix(0.05,0,0,0.05,18.95,0)" xlink:href="#P"/><use transform="matrix(0.05,0,0,0.05,28.950000000000003,0)" xlink:href="#X"/><use transform="matrix(0.05,0,0,0.05,34.9,0)" xlink:href="#J"/><use transform="matrix(0.05,0,0,0.05,38.85,0)" xlink:href="#G"/><use transform="matrix(0.05,0,0,0.05,48.85,0)" xlink:href="#X"/></g><g id="w"><use transform="matrix(0.05,0,0,0.05,0,0)" xlink:href="#O"/><use transform="matrix(0.05,0,0,0.05,10,0)" xlink:href="#P"/><use transform="matrix(0.05,0,0,0.05,20,0)" xlink:href="#G"/><use transform="matrix(0.05,0,0,0.05,30,0)" xlink:href="#ab"/><use transform="matrix(0.05,0,0,0.05,44.95,0)" xlink:href="#P"/><use transform="matrix(0.05,0,0,0.05,54.95,0)" xlink:href="#N"/><use transform="matrix(0.05,0,0,0.05,59.95,0)" xlink:href="#X"/><use transform="matrix(0.05,0,0,0.05,65.9,0)" xlink:href="#ac"/><use transform="matrix(0.05,0,0,0.05,74.9,0)" xlink:href="#U"/></g><g id="x"><use transform="matrix(0.05,0,0,0.05,0,0)" xlink:href="#X"/><use transform="matrix(0.05,0,0,0.05,5.95,0)" xlink:href="#J"/><use transform="matrix(0.05,0,0,0.05,9.9,0)" xlink:href="#K"/><use transform="matrix(0.05,0,0,0.05,19.9,0)" xlink:href="#O"/><use transform="matrix(0.05,0,0,0.05,29.899999999999995,0)" xlink:href="#W"/></g><path d="M212-179c-10-28-35-45-73-45-59 0-87 40-87 99 0 60 29 101 89 101 43 0 62-24 78-52l27 14C228-24 195 4 139 4 59 4 22-46 18-125c-6-104 99-153 187-111 19 9 31 26 39 46" id="ak"/><g id="y"><use transform="matrix(0.05,0,0,0.05,0,0)" xlink:href="#ak"/><use transform="matrix(0.05,0,0,0.05,12.950000000000001,0)" xlink:href="#X"/><use transform="matrix(0.05,0,0,0.05,18.900000000000002,0)" xlink:href="#P"/><use transform="matrix(0.05,0,0,0.05,28.900000000000002,0)" xlink:href="#H"/><use transform="matrix(0.05,0,0,0.05,38.900000000000006,0)" xlink:href="#N"/><use transform="matrix(0.05,0,0,0.05,43.900000000000006,0)" xlink:href="#P"/></g><g id="z"><use transform="matrix(0.05,0,0,0.05,0,0)" xlink:href="#G"/><use transform="matrix(0.05,0,0,0.05,10,0)" xlink:href="#M"/><use transform="matrix(0.05,0,0,0.05,20,0)" xlink:href="#N"/><use transform="matrix(0.05,0,0,0.05,25,0)" xlink:href="#L"/><use transform="matrix(0.05,0,0,0.05,35,0)" xlink:href="#M"/><use transform="matrix(0.05,0,0,0.05,45,0)" xlink:href="#N"/></g><g id="A"><use transform="matrix(0.05,0,0,0.05,0,0)" xlink:href="#G"/><use transform="matrix(0.05,0,0,0.05,10,0)" xlink:href="#M"/><use transform="matrix(0.05,0,0,0.05,20,0)" xlink:href="#N"/><use transform="matrix(0.05,0,0,0.05,25,0)" xlink:href="#L"/><use transform="matrix(0.05,0,0,0.05,35,0)" xlink:href="#M"/><use transform="matrix(0.05,0,0,0.05,45,0)" xlink:href="#N"/><use transform="matrix(0.05,0,0,0.05,50,0)" xlink:href="#U"/></g><path d="M266 0h-40l-56-210L115 0H75L2-248h35L96-30l15-64 43-154h32l59 218 59-218h35" id="al"/><g id="B"><use transform="matrix(0.05,0,0,0.05,0,0)" xlink:href="#al"/><use transform="matrix(0.05,0,0,0.05,16.599999999999998,0)" xlink:href="#X"/><use transform="matrix(0.05,0,0,0.05,22.549999999999997,0)" xlink:href="#J"/><use transform="matrix(0.05,0,0,0.05,26.499999999999996,0)" xlink:href="#N"/><use transform="matrix(0.05,0,0,0.05,31.499999999999996,0)" xlink:href="#P"/></g><g id="C"><use transform="matrix(0.05,0,0,0.05,0,0)" xlink:href="#G"/><use transform="matrix(0.05,0,0,0.05,10,0)" xlink:href="#M"/><use transform="matrix(0.05,0,0,0.05,20,0)" xlink:href="#N"/><use transform="matrix(0.05,0,0,0.05,25,0)" xlink:href="#L"/><use transform="matrix(0.05,0,0,0.05,35,0)" xlink:href="#M"/><use transform="matrix(0.05,0,0,0.05,45,0)" xlink:href="#N"/></g><g id="D"><use transform="matrix(0.05,0,0,0.05,0,0)" xlink:href="#ag"/><use transform="matrix(0.05,0,0,0.05,5,0)" xlink:href="#J"/><use transform="matrix(0.05,0,0,0.05,8.95,0)" xlink:href="#T"/><use transform="matrix(0.05,0,0,0.05,12.899999999999999,0)" xlink:href="#P"/></g><g id="E"><use transform="matrix(0.05,0,0,0.05,0,0)" xlink:href="#Z"/><use transform="matrix(0.05,0,0,0.05,12,0)" xlink:href="#K"/><use transform="matrix(0.05,0,0,0.05,22,0)" xlink:href="#I"/></g></defs></g></svg>